<svg width="26" height="20" viewBox="0 0 26 20" fill="none" xmlns="http://www.w3.org/2000/svg">
<path d="M4.59922 0.399902C3.43227 0.399902 2.31311 0.863472 1.48795 1.68863C0.662789 2.51379 0.199219 3.63295 0.199219 4.7999V6.7999H25.7992V4.7999C25.7992 3.63295 25.3356 2.51379 24.5105 1.68863C23.6853 0.863472 22.5662 0.399902 21.3992 0.399902H4.59922ZM25.7992 8.3999H0.199219V15.1999C0.199219 16.3669 0.662789 17.486 1.48795 18.3112C2.31311 19.1363 3.43227 19.5999 4.59922 19.5999H21.3992C22.5662 19.5999 23.6853 19.1363 24.5105 18.3112C25.3356 17.486 25.7992 16.3669 25.7992 15.1999V8.3999ZM18.5992 14.7999H21.7992C22.0114 14.7999 22.2149 14.8842 22.3649 15.0342C22.5149 15.1842 22.5992 15.3877 22.5992 15.5999C22.5992 15.8121 22.5149 16.0156 22.3649 16.1656C22.2149 16.3156 22.0114 16.3999 21.7992 16.3999H18.5992C18.387 16.3999 18.1836 16.3156 18.0335 16.1656C17.8835 16.0156 17.7992 15.8121 17.7992 15.5999C17.7992 15.3877 17.8835 15.1842 18.0335 15.0342C18.1836 14.8842 18.387 14.7999 18.5992 14.7999Z" fill="#B81A14"/>
</svg>
