<svg width="32" height="24" viewBox="0 0 32 24" fill="none" xmlns="http://www.w3.org/2000/svg">
<path d="M30.5 20.5H29.5C29.3674 20.5 29.2402 20.4473 29.1464 20.3536C29.0527 20.2598 29 20.1326 29 20V16C29 15.8674 29.0527 15.7402 29.1464 15.6464C29.2402 15.5527 29.3674 15.5 29.5 15.5H30.5C30.8978 15.5 31.2794 15.342 31.5607 15.0607C31.842 14.7794 32 14.3978 32 14C32 13.6022 31.842 13.2206 31.5607 12.9393C31.2794 12.658 30.8978 12.5 30.5 12.5H29.5C28.5717 12.5 27.6815 12.8687 27.0251 13.5251C26.3687 14.1815 26 15.0717 26 16V16.5H24.79C24.5105 15.5211 23.9655 14.6386 23.2154 13.9502C22.4653 13.2619 21.5393 12.7946 20.54 12.6L16.14 2.03875C15.9503 1.58333 15.6301 1.19421 15.2197 0.920394C14.8093 0.646579 14.3271 0.500308 13.8337 0.5H3C2.6717 0.5 2.34661 0.564664 2.04329 0.690301C1.73998 0.815938 1.46438 1.00009 1.23223 1.23223C0.763392 1.70107 0.5 2.33696 0.5 3V15.7125C0.116863 16.5502 -0.0497138 17.4708 0.0155572 18.3897C0.0808282 19.3086 0.375856 20.1964 0.873563 20.9715C1.37127 21.7467 2.05571 22.3845 2.86407 22.8263C3.67242 23.268 4.5788 23.4997 5.5 23.5H19.5C20.6966 23.4984 21.8601 23.1072 22.8146 22.3855C23.769 21.6638 24.4625 20.6509 24.79 19.5H26V20C26 20.9283 26.3687 21.8185 27.0251 22.4749C27.6815 23.1313 28.5717 23.5 29.5 23.5H30.5C30.8978 23.5 31.2794 23.342 31.5607 23.0607C31.842 22.7794 32 22.3978 32 22C32 21.6022 31.842 21.2206 31.5607 20.9393C31.2794 20.658 30.8978 20.5 30.5 20.5ZM17.25 12.5H8.5V3.5H13.5L17.25 12.5ZM5.5 3.5V12.5C4.81578 12.4992 4.13746 12.6264 3.5 12.875V3.5H5.5ZM19.5 20.5H5.5C4.83696 20.5 4.20107 20.2366 3.73223 19.7678C3.26339 19.2989 3 18.663 3 18C3 17.337 3.26339 16.7011 3.73223 16.2322C4.20107 15.7634 4.83696 15.5 5.5 15.5H19.5C20.163 15.5 20.7989 15.7634 21.2678 16.2322C21.7366 16.7011 22 17.337 22 18C22 18.663 21.7366 19.2989 21.2678 19.7678C20.7989 20.2366 20.163 20.5 19.5 20.5Z" fill="#B81A14"/>
</svg>
