<svg width="49" height="48" viewBox="0 0 49 48" fill="none" xmlns="http://www.w3.org/2000/svg">
<path d="M3.5 25.5V40.5C3.5 42.981 5.519 45 8 45H12.5V21H8C5.519 21 3.5 23.019 3.5 25.5ZM44.213 20.445C43.6586 19.6831 42.9309 19.064 42.0901 18.6389C41.2492 18.2138 40.3192 17.9948 39.377 18H29.078L30.47 11.04C30.6653 10.0649 30.6418 9.05852 30.4011 8.09358C30.1604 7.12864 29.7085 6.22915 29.078 5.46001C28.4492 4.68955 27.6566 4.06897 26.7577 3.64343C25.8589 3.21788 24.8765 2.99808 23.882 3.00001C22.55 3.00001 21.365 3.89401 21.029 5.07901L19.637 8.93701C18.5498 11.9435 17.1649 14.8339 15.503 17.565V45H34.694C35.974 45.0047 37.2216 44.5978 38.2528 43.8394C39.284 43.081 40.0441 42.0113 40.421 40.788L45.107 25.788C45.3923 24.8903 45.46 23.9377 45.3046 23.0087C45.1491 22.0797 44.775 21.2009 44.213 20.445Z" fill="#B81A14"/>
</svg>
