<svg width="32" height="32" viewBox="0 0 32 32" fill="none" xmlns="http://www.w3.org/2000/svg">
<path d="M8.00032 24.6668C8.53076 24.6668 9.03946 24.4561 9.41454 24.081C9.78961 23.706 10.0003 23.1973 10.0003 22.6668C10.0003 22.1364 9.78961 21.6277 9.41454 21.2526C9.03946 20.8775 8.53076 20.6668 8.00032 20.6668C7.46989 20.6668 6.96119 20.8775 6.58611 21.2526C6.21104 21.6277 6.00032 22.1364 6.00032 22.6668C6.00032 23.1973 6.21104 23.706 6.58611 24.081C6.96119 24.4561 7.46989 24.6668 8.00032 24.6668ZM6.00032 12.6668L3.38699 16.0002H9.33366V12.6668M24.0003 24.6668C24.5308 24.6668 25.0395 24.4561 25.4145 24.081C25.7896 23.706 26.0003 23.1973 26.0003 22.6668C26.0003 22.1364 25.7896 21.6277 25.4145 21.2526C25.0395 20.8775 24.5308 20.6668 24.0003 20.6668C23.4699 20.6668 22.9612 20.8775 22.5861 21.2526C22.211 21.6277 22.0003 22.1364 22.0003 22.6668C22.0003 23.1973 22.211 23.706 22.5861 24.081C22.9612 24.4561 23.4699 24.6668 24.0003 24.6668ZM5.33366 10.6668H9.33366V5.3335H28.0003C29.4803 5.3335 30.667 6.52016 30.667 8.00016V22.6668H28.0003C28.0003 23.7277 27.5789 24.7451 26.8288 25.4953C26.0786 26.2454 25.0612 26.6668 24.0003 26.6668C22.9395 26.6668 21.922 26.2454 21.1719 25.4953C20.4218 24.7451 20.0003 23.7277 20.0003 22.6668H12.0003C12.0003 23.7277 11.5789 24.7451 10.8288 25.4953C10.0786 26.2454 9.06119 26.6668 8.00032 26.6668C6.93946 26.6668 5.92204 26.2454 5.1719 25.4953C4.42175 24.7451 4.00032 23.7277 4.00032 22.6668H1.33366V16.0002L5.33366 10.6668Z" fill="#B81A14"/>
</svg>
