<svg width="12" height="20" viewBox="0 0 12 20" fill="none" xmlns="http://www.w3.org/2000/svg">
<path d="M8.99961 13.2084C8.14871 13.2084 7.33265 12.8704 6.73098 12.2687C6.1293 11.667 5.79128 10.8509 5.79128 10C5.79128 9.14914 6.1293 8.33309 6.73098 7.73141C7.33265 7.12973 8.14871 6.79171 8.99961 6.79171C9.85051 6.79171 10.6666 7.12973 11.2682 7.73141C11.8699 8.33309 12.2079 9.14914 12.2079 10C12.2079 10.8509 11.8699 11.667 11.2682 12.2687C10.6666 12.8704 9.85051 13.2084 8.99961 13.2084ZM15.8104 10.8892C15.8471 10.5959 15.8746 10.3025 15.8746 10C15.8746 9.69755 15.8471 9.39505 15.8104 9.08338L17.7446 7.58921C17.9188 7.45171 17.9646 7.20421 17.8546 7.00254L16.0213 3.83088C15.9113 3.62921 15.6638 3.54671 15.4621 3.62921L13.1796 4.54588C12.7029 4.18838 12.2079 3.87671 11.6304 3.64754L11.2913 1.21838C11.2727 1.11041 11.2164 1.01252 11.1325 0.942048C11.0486 0.871579 10.9425 0.833081 10.8329 0.833376H7.16628C6.93711 0.833376 6.74461 0.998376 6.70794 1.21838L6.36878 3.64754C5.79128 3.87671 5.29628 4.18838 4.81961 4.54588L2.53711 3.62921C2.33544 3.54671 2.08794 3.62921 1.97794 3.83088L0.144609 7.00254C0.025442 7.20421 0.0804421 7.45171 0.254609 7.58921L2.18878 9.08338C2.15211 9.39505 2.12461 9.69755 2.12461 10C2.12461 10.3025 2.15211 10.5959 2.18878 10.8892L0.254609 12.4109C0.0804421 12.5484 0.025442 12.7959 0.144609 12.9975L1.97794 16.1692C2.08794 16.3709 2.33544 16.4442 2.53711 16.3709L4.81961 15.445C5.29628 15.8117 5.79128 16.1234 6.36878 16.3525L6.70794 18.7817C6.74461 19.0017 6.93711 19.1667 7.16628 19.1667H10.8329C11.0621 19.1667 11.2546 19.0017 11.2913 18.7817L11.6304 16.3525C12.2079 16.1142 12.7029 15.8117 13.1796 15.445L15.4621 16.3709C15.6638 16.4442 15.9113 16.3709 16.0213 16.1692L17.8546 12.9975C17.9646 12.7959 17.9188 12.5484 17.7446 12.4109L15.8104 10.8892Z" fill="#B81A14"/>
</svg>
