<svg width="28" height="25" viewBox="0 0 28 25" fill="none" xmlns="http://www.w3.org/2000/svg">
<path d="M1.08 5.54662L1.12667 5.43329L1.22 5.26662L1.264 5.20262L1.348 5.10262L1.43333 5.01596L1.564 4.91062L1.70533 4.82396L1.79467 4.77996L1.85867 4.75329L2.044 4.69862L26.1147 0.685289C26.3056 0.653548 26.5011 0.663753 26.6877 0.715196C26.8743 0.766639 27.0475 0.858086 27.1951 0.983186C27.3428 1.10828 27.4615 1.26404 27.5429 1.43962C27.6244 1.6152 27.6666 1.80641 27.6667 1.99996V4.66662C27.6667 5.02024 27.5262 5.35938 27.2761 5.60943C27.0261 5.85948 26.687 5.99996 26.3333 5.99996C25.9797 5.99996 25.6406 5.85948 25.3905 5.60943C25.1405 5.35938 25 5.02024 25 4.66662V3.57329L6.59733 6.63996L8.264 7.47462C8.48519 7.58546 8.67118 7.75566 8.80116 7.96617C8.93115 8.17669 8.99999 8.41921 9 8.66662L8.99867 12.6666H11.6667V7.33329C11.6667 6.97967 11.8071 6.64053 12.0572 6.39048C12.3072 6.14043 12.6464 5.99996 13 5.99996H18.3333C20.4551 5.99996 22.4899 6.84281 23.9902 8.3431C25.4905 9.84339 26.3333 11.8782 26.3333 14V20.6666C26.3333 21.0202 26.1929 21.3594 25.9428 21.6094C25.6928 21.8595 25.3536 22 25 22H23.44C23.1645 22.7807 22.6537 23.4567 21.9779 23.9349C21.3021 24.4131 20.4946 24.6699 19.6667 24.6699C18.8388 24.6699 18.0313 24.4131 17.3555 23.9349C16.6797 23.4567 16.1688 22.7807 15.8933 22H7.44C7.12513 22.8895 6.50603 23.6391 5.69204 24.1164C4.87806 24.5938 3.92157 24.7681 2.99154 24.6085C2.06151 24.449 1.21778 23.9659 0.609393 23.2446C0.00100279 22.5233 -0.3329 21.6102 -0.333333 20.6666V14C-0.333333 13.6463 -0.192858 13.3072 0.057191 13.0571C0.307239 12.8071 0.646378 12.6666 1 12.6666V6.01329C0.998613 5.85421 1.02571 5.69616 1.08 5.54662ZM3.66667 19.3333C3.31304 19.3333 2.97391 19.4738 2.72386 19.7238C2.47381 19.9739 2.33333 20.313 2.33333 20.6666C2.33333 21.0202 2.47381 21.3594 2.72386 21.6094C2.97391 21.8595 3.31304 22 3.66667 22C4.02029 22 4.35943 21.8595 4.60948 21.6094C4.85952 21.3594 5 21.0202 5 20.6666C5 20.313 4.85952 19.9739 4.60948 19.7238C4.35943 19.4738 4.02029 19.3333 3.66667 19.3333ZM19.6667 19.3333C19.41 19.3332 19.1588 19.4072 18.9431 19.5464C18.7275 19.6857 18.5566 19.8841 18.451 20.1181C18.3454 20.352 18.3096 20.6115 18.3478 20.8653C18.3861 21.1191 18.4968 21.3565 18.6666 21.5489C18.8365 21.7413 19.0582 21.8807 19.3053 21.9502C19.5524 22.0197 19.8143 22.0163 20.0595 21.9406C20.3048 21.8649 20.523 21.7201 20.6879 21.5234C20.8528 21.3267 20.9575 21.0866 20.9893 20.832L21 20.656L20.9907 20.5106C20.9525 20.1863 20.7965 19.8873 20.5525 19.6702C20.3084 19.4532 19.9932 19.3333 19.6667 19.3333ZM18.7973 8.68662L19.9907 12.6666H23.4973L23.4413 12.46C23.1508 11.4953 22.5929 10.6327 21.8324 9.97201C21.0719 9.3113 20.1398 8.87951 19.144 8.72662L18.7973 8.68662Z" fill="#B81A14"/>
</svg>
